<?xml version="1.0" encoding="utf-8"?>
<!-- Generator: Adobe Illustrator 22.1.0, SVG Export Plug-In . SVG Version: 6.00 Build 0)  -->
<svg version="1.1" id="Layer_1" xmlns="http://www.w3.org/2000/svg" xmlns:xlink="http://www.w3.org/1999/xlink" x="0px" y="0px"
	 viewBox="0 0 74 74" style="enable-background:new 0 0 74 74;" xml:space="preserve">
<style type="text/css">
	.st0{fill:#09172D;}
	.st1{fill:#FFFFFF;}
</style>
<g>
	<g>
		<path class="st0" d="M36.3,2c19.3,0,35,15.7,35,35c0,19.3-15.7,35-35,35s-35-15.7-35-35C1.3,17.7,17,2,36.3,2"/>
	</g>
	<g>
		<path class="st1" d="M36.3,72.8C16.6,72.8,0.5,56.7,0.5,37c0-19.7,16.1-35.8,35.8-35.8C56,1.2,72.1,17.3,72.1,37
			C72.1,56.7,56,72.8,36.3,72.8z M36.3,2.9C17.5,2.9,2.1,18.2,2.1,37c0,18.8,15.3,34.1,34.1,34.1c18.8,0,34.1-15.3,34.1-34.1
			C70.4,18.2,55.1,2.9,36.3,2.9z"/>
	</g>
	<g>
		<path class="st1" d="M36.3,10.9c14.4,0,26.1,11.7,26.1,26.1c0,14.4-11.7,26.1-26.1,26.1c-14.4,0-26.1-11.7-26.1-26.1
			C10.2,22.6,21.9,10.9,36.3,10.9"/>
	</g>
	<g>
		<path class="st0" d="M36.3,63.7c-14.7,0-26.7-12-26.7-26.7s12-26.7,26.7-26.7C51,10.3,63,22.3,63,37S51,63.7,36.3,63.7z
			 M36.3,11.5c-14.1,0-25.5,11.5-25.5,25.5s11.5,25.5,25.5,25.5c14.1,0,25.5-11.5,25.5-25.5S50.4,11.5,36.3,11.5z"/>
	</g>
	<g>
		<path class="st1" d="M13.4,18.5c1.1,0.8,1.3,1.6,0.5,2.7c-0.8,1.1-1.7,1.2-2.7,0.5L9,20.1l0.7-1l2.2,1.6c0.5,0.3,0.8,0.3,1.2-0.1
			c0.3-0.5,0.2-0.8-0.3-1.2l-2.2-1.6l0.7-1L13.4,18.5z"/>
	</g>
	<g>
		<polygon class="st1" points="12.5,15.5 13.3,14.7 16.4,15.6 16.4,15.6 14.4,13.6 15.2,12.8 18.4,16 17.5,16.9 14.4,16 14.4,16 
			16.4,18 15.6,18.7 		"/>
	</g>
	<g>
		
			<rect x="17.8" y="10.9" transform="matrix(0.7992 -0.6011 0.6011 0.7992 -4.2355 13.7227)" class="st1" width="1.2" height="4.5"/>
	</g>
	<g>
		<polygon class="st1" points="22.5,9.1 21.4,9.8 23.1,12.8 22.1,13.4 20.3,10.4 19.2,11.1 18.7,10.2 22,8.3 		"/>
	</g>
	<g>
		<polygon class="st1" points="23.4,7.6 26.8,6.4 27.1,7.2 24.9,8.1 25.1,8.8 27.2,8.1 27.5,8.9 25.5,9.7 25.8,10.5 28.1,9.6 
			28.4,10.6 25,11.8 		"/>
	</g>
	<g>
		<path class="st1" d="M28.5,5.9l1.9-0.3c1.4-0.2,2.3,0.4,2.6,1.8c0.3,1.5-0.4,2.4-1.8,2.6l-1.9,0.3L28.5,5.9z M30.3,9.1L30.9,9
			c0.9-0.2,1.2-0.6,1-1.5c-0.1-0.8-0.7-1.1-1.4-1l-0.5,0.1L30.3,9.1z"/>
	</g>
	<g>
		<path class="st1" d="M40.4,8.3c-0.1,0.5,0.2,0.8,0.7,0.8c0.4,0.1,0.7,0,0.8-0.3c0.1-0.4-0.6-0.6-1.2-0.9c-0.6-0.3-1.2-0.7-1.1-1.5
			c0.2-1,1.2-1.2,2-1c0.9,0.1,1.7,0.7,1.5,1.7l-1.2-0.2c0.1-0.4-0.3-0.6-0.6-0.7c-0.2,0-0.6,0-0.6,0.3C40.8,6.9,41.4,7,42,7.3
			c0.6,0.3,1.2,0.7,1.1,1.5c-0.2,1.1-1.2,1.3-2.2,1.2c-1-0.2-1.8-0.8-1.7-1.9L40.4,8.3z"/>
	</g>
	<g>
		<polygon class="st1" points="48.2,8.3 46.9,7.9 45.8,11.2 44.6,10.8 45.8,7.5 44.5,7 44.8,6.1 48.5,7.3 		"/>
	</g>
	<g>
		<path class="st1" d="M50.4,8.3l1.1,0.5l-0.6,4.8L49.8,13l0.1-0.8l-1.4-0.7l-0.6,0.6l-1.1-0.6L50.4,8.3z M49.2,10.8l0.9,0.5
			l0.3-1.6l0,0L49.2,10.8z"/>
	</g>
	<g>
		<polygon class="st1" points="55.9,12.9 54.8,12.1 52.8,15 51.8,14.3 53.9,11.5 52.8,10.7 53.3,9.8 56.5,12.1 		"/>
	</g>
	<g>
		<polygon class="st1" points="57.7,13.1 60.2,15.7 59.5,16.3 57.8,14.6 57.3,15.2 58.8,16.7 58.2,17.4 56.6,15.8 56,16.4 
			57.8,18.2 57.1,18.9 54.5,16.3 		"/>
	</g>
	<g>
		<path class="st1" d="M59.4,19.5c-0.4,0.3-0.4,0.7-0.1,1.1c0.2,0.3,0.5,0.5,0.8,0.3c0.3-0.2,0-0.8-0.2-1.4
			c-0.2-0.6-0.4-1.4,0.3-1.8c0.8-0.6,1.7,0,2.2,0.7c0.5,0.7,0.7,1.7-0.1,2.3l-0.7-1c0.3-0.2,0.2-0.6,0-0.9c-0.1-0.2-0.4-0.4-0.6-0.2
			c-0.3,0.2,0,0.8,0.3,1.4c0.2,0.6,0.4,1.3-0.3,1.8c-0.9,0.7-1.8,0.1-2.4-0.7c-0.6-0.8-0.8-1.9,0.2-2.5L59.4,19.5z"/>
	</g>
	<g>
		<path class="st1" d="M9.2,31.2l-0.3,2.1c-0.1,0.8-0.6,1.6-1.7,1.4c-1.1-0.2-1.4-0.9-1.3-1.8l0.1-1l-1.5-0.2l0.2-1.2L9.2,31.2z
			 M6.9,32.1l-0.1,0.8c-0.1,0.4,0.1,0.6,0.5,0.7C7.7,33.6,7.9,33.4,8,33l0.1-0.8L6.9,32.1z"/>
	</g>
	<g>
		<path class="st1" d="M8.7,37.4c0,1.4-1,2.2-2.3,2.3c-1.3,0-2.4-0.8-2.4-2.2s1-2.2,2.3-2.3C7.6,35.2,8.7,36,8.7,37.4 M5,37.5
			c0,0.8,0.7,1,1.4,1c0.7,0,1.3-0.3,1.3-1.1c0-0.8-0.7-1-1.4-1C5.7,36.4,5,36.7,5,37.5"/>
	</g>
	<g>
		<path class="st1" d="M6,41.6c-0.5,0.1-0.6,0.5-0.5,1c0.1,0.3,0.2,0.7,0.6,0.6c0.4-0.1,0.4-0.7,0.4-1.4c0.1-0.7,0.2-1.4,1.1-1.5
			c1-0.2,1.5,0.7,1.7,1.6c0.2,0.9-0.1,1.8-1.1,2l-0.2-1.2c0.4-0.1,0.5-0.5,0.4-0.8c0-0.2-0.2-0.5-0.5-0.5c-0.3,0.1-0.3,0.7-0.4,1.4
			c-0.1,0.7-0.3,1.4-1.1,1.5c-1.1,0.2-1.7-0.7-1.8-1.7c-0.2-1,0.1-2,1.2-2.2L6,41.6z"/>
	</g>
	<g>
		<polygon class="st1" points="9.7,47.9 9.3,46.6 5.9,47.7 5.6,46.6 8.9,45.5 8.5,44.2 9.4,43.9 10.6,47.6 		"/>
	</g>
	<g>
		<path class="st1" d="M11.1,48.5l0.5,1.1l-3.3,3.5L7.8,52l0.6-0.6L7.7,50l-0.9,0.1L6.3,49L11.1,48.5z M8.6,49.8l0.4,0.9l1.2-1.1
			l0,0L8.6,49.8z"/>
	</g>
	<g>
		<polygon class="st1" points="12.5,51.3 13.2,52.3 10.3,54.2 11.5,56 10.7,56.5 8.8,53.8 		"/>
	</g>
	<g>
		
			<rect x="14.3" y="58.9" transform="matrix(0.6587 -0.7524 0.7524 0.6587 -39.1255 32.7966)" class="st1" width="4.5" height="1.2"/>
	</g>
	<g>
		<polygon class="st1" points="19,58.7 20,59.4 19.8,62.6 19.8,62.6 21.3,60.3 22.3,60.9 19.7,64.7 18.7,64 19,60.8 19,60.8 
			17.4,63.1 16.5,62.4 		"/>
	</g>
	<g>
		<path class="st1" d="M22.4,64.3c-0.2,0.5,0,0.8,0.5,1c0.3,0.2,0.7,0.2,0.8-0.1c0.2-0.4-0.4-0.7-0.9-1.2c-0.5-0.4-1-1-0.6-1.7
			c0.4-0.9,1.5-0.8,2.3-0.4c0.8,0.4,1.4,1.2,1,2.1l-1.1-0.5c0.2-0.4-0.1-0.6-0.4-0.8c-0.2-0.1-0.6-0.2-0.7,0.1
			c-0.1,0.3,0.4,0.7,0.9,1.1c0.5,0.4,1,1,0.6,1.7c-0.5,1-1.5,0.9-2.4,0.5c-0.9-0.4-1.6-1.3-1.1-2.3L22.4,64.3z"/>
	</g>
	<g>
		<path class="st1" d="M26.6,63l2.1,0.6c0.8,0.2,1.4,0.8,1.1,1.9c-0.3,1.1-1.1,1.3-2,1l-0.9-0.3l-0.4,1.4l-1.1-0.3L26.6,63z
			 M27.1,65.3l0.8,0.2c0.4,0.1,0.7,0,0.8-0.4c0.1-0.4-0.1-0.6-0.4-0.8l-0.8-0.2L27.1,65.3z"/>
	</g>
	<g>
		<polygon class="st1" points="30.6,64.1 34.1,64.6 34,65.6 31.6,65.2 31.5,66 33.7,66.3 33.6,67.2 31.4,66.9 31.3,67.8 33.7,68.1 
			33.6,69.1 29.9,68.6 		"/>
	</g>
	<g>
		<path class="st1" d="M37.8,66.3c-0.1-0.5-0.4-0.7-0.9-0.7c-0.8,0-1,0.7-1,1.4c0,0.7,0.3,1.3,1.1,1.3c0.6,0,0.9-0.3,0.9-0.9l1.2,0
			c0,1.2-0.9,1.9-2,1.9c-1.4,0-2.3-1-2.3-2.3c0-1.3,0.8-2.4,2.2-2.4c1,0,2,0.6,2.1,1.7L37.8,66.3z"/>
	</g>
	<g>
		<polygon class="st1" points="43.1,64.9 41.8,65.1 42.4,68.6 41.3,68.8 40.7,65.3 39.3,65.6 39.2,64.6 43,63.9 		"/>
	</g>
	<g>
		<rect x="44" y="63.5" transform="matrix(0.9608 -0.2773 0.2773 0.9608 -16.4871 14.9433)" class="st1" width="1.2" height="4.5"/>
	</g>
	<g>
		<path class="st1" d="M47.1,62.4c1.3-0.6,2.5,0.1,3,1.3c0.5,1.2,0.2,2.5-1.1,3c-1.3,0.6-2.5-0.1-3-1.3
			C45.5,64.2,45.8,62.9,47.1,62.4 M48.5,65.8c0.7-0.3,0.7-1,0.4-1.6c-0.3-0.6-0.8-1.1-1.5-0.8c-0.7,0.3-0.7,1-0.4,1.6
			C47.3,65.6,47.9,66.1,48.5,65.8"/>
	</g>
	<g>
		<polygon class="st1" points="49.6,61.3 50.6,60.7 53.4,62.2 53.4,62.2 51.9,59.8 52.9,59.2 55.3,63 54.3,63.7 51.5,62.2 
			51.4,62.2 53,64.5 52,65.1 		"/>
	</g>
	<g>
		<path class="st1" d="M59.3,57.3c0.4,0.3,0.8,0.2,1.1-0.2c0.2-0.3,0.4-0.6,0.1-0.8c-0.3-0.3-0.8,0.2-1.3,0.6
			c-0.6,0.4-1.2,0.7-1.8,0.2c-0.8-0.6-0.4-1.6,0.1-2.3c0.6-0.7,1.5-1.1,2.3-0.5L59,55.1c-0.3-0.3-0.7-0.1-0.9,0.2
			c-0.2,0.2-0.3,0.5-0.1,0.7c0.3,0.2,0.7-0.2,1.3-0.6c0.6-0.4,1.2-0.7,1.8-0.2c0.9,0.7,0.5,1.7-0.1,2.5c-0.7,0.8-1.6,1.2-2.5,0.5
			L59.3,57.3z"/>
	</g>
	<g>
		<polygon class="st1" points="59,52.9 60.9,49.8 61.7,50.3 60.4,52.4 61.1,52.8 62.2,50.9 63,51.4 61.9,53.3 62.6,53.7 63.9,51.6 
			64.8,52.1 62.9,55.2 		"/>
	</g>
	<g>
		<path class="st1" d="M61.1,49.3l0.9-2.1c0.3-0.7,0.9-1.3,1.8-1c0.5,0.2,0.8,0.6,0.8,1.1l0,0c0.3-0.4,0.8-0.3,1.2-0.2
			c0.2,0.1,0.8,0.3,1,0.2l-0.4,1.1c-0.2,0-0.6-0.1-0.7-0.2c-0.4-0.1-0.9-0.3-1.1,0.3l-0.3,0.8l1.5,0.6L65.3,51L61.1,49.3z
			 M63.4,48.9l0.4-0.9c0.1-0.3,0-0.6-0.3-0.7c-0.3-0.1-0.6,0.1-0.7,0.4l-0.4,0.9L63.4,48.9z"/>
	</g>
	<g>
		<polygon class="st1" points="67.7,44 67.4,45.3 62.7,45.6 63,44.4 66.4,44.3 66.4,44.3 63.4,42.7 63.7,41.5 		"/>
	</g>
	<g>
		
			<rect x="65.4" y="38.7" transform="matrix(0.1298 -0.9915 0.9915 0.1298 16.8262 100.9872)" class="st1" width="1.2" height="4.5"/>
	</g>
	<g>
		<path class="st1" d="M65.6,36.3c-0.5,0.1-0.7,0.4-0.7,0.9c0,0.8,0.7,1.1,1.3,1.1c0.7,0,1.3-0.3,1.4-1c0-0.5-0.3-0.9-0.8-0.9l0-1.2
			c1.2,0.1,1.8,0.9,1.8,2.1c0,1.4-1.1,2.2-2.4,2.2c-1.3,0-2.3-0.9-2.3-2.3c0-1,0.6-2,1.7-2L65.6,36.3z"/>
	</g>
	<g>
		<polygon class="st1" points="63.9,34.6 63.4,31.1 64.3,30.9 64.7,33.3 65.4,33.2 65.1,31 66,30.9 66.3,33.1 67.2,33 66.8,30.5 
			67.8,30.4 68.4,34 		"/>
	</g>
	<g>
		<polygon class="st1" points="8.5,23.6 9.3,25.3 11.2,25.5 9.9,26.9 10.2,28.7 8.5,27.8 6.8,28.7 7.1,26.9 5.8,25.5 7.7,25.3 		"/>
	</g>
	<g>
		<polygon class="st1" points="64.1,23.6 64.9,25.3 66.8,25.5 65.4,26.9 65.8,28.7 64.1,27.8 62.4,28.7 62.7,26.9 61.4,25.5 
			63.2,25.3 		"/>
	</g>
	<g>
		<polygon class="st0" points="36.4,12.3 43.7,27 59.9,29.4 48.2,40.8 51,57 36.4,49.4 21.9,57 24.7,40.8 12.9,29.4 29.1,27 		"/>
	</g>
	<g>
		<path class="st0" d="M21.2,58L24.1,41L11.8,29l17-2.5l7.6-15.4L44,26.6L61,29L48.7,41L51.6,58l-15.2-8L21.2,58z M14,29.7
			l11.2,10.9l-2.6,15.4l13.9-7.3l13.9,7.3l-2.6-15.4l11.2-10.9l-15.5-2.3l-6.9-14l-6.9,14L14,29.7z"/>
	</g>
	<g>
		<path class="st1" d="M23.3,48.7c10.8-4.2,25.3-10,25.6-10.2c0,0,3.3-4.3,1.3-6.2c-0.6-0.6-1.5-0.6-4.8-0.6c0,0-0.1-1.3-5.3-2.5
			c-0.3-0.1-5.4-1.1-11-2.3l-16.3,2.4l11.8,11.5L23.3,48.7z"/>
	</g>
	<g>
		<path class="st0" d="M43.8,33.6c-0.5,0.3-2,0.5-2.6,0.6c-0.5,0-0.8,0-0.8,0.2c0,0.2,0.7,0.1,1,0.1c1.2,0,5.7-0.3,6.8-0.2
			c0.9,0.1-0.1,1.8-0.4,2.8c-0.1,0.4,0.2,0.2,0.3,0c0.3-0.5,1.2-2.2,1.3-2.8c0.1-1.3-0.8-1.5-2.3-1.5l-2.4,0c-0.2,0-0.2,0.1-0.3,0.2
			C44.3,33.3,44,33.6,43.8,33.6"/>
	</g>
	<g>
		<path class="st0" d="M38.3,39.2c2.7-0.9,2.8-1,5.4-1.6c1.5-0.3,3.3-0.6,3.6-0.8c0.4-0.2-0.4-0.6-2.3-0.5
			c-4.6,0.2-12.1,3.3-15.2,4.8l-2.7-8.2h17.3c-0.2-2-10.2-2-10.5-2H14.2l10.1,10l-0.8,5l5.5-2.7C32.8,41.4,35.3,40.2,38.3,39.2"/>
	</g>
	<g>
		<path class="st0" d="M71.2,65.3c-1.4,0-2.3-1-2.3-2.4c0-1.4,1.1-2.4,2.3-2.4c1.2,0,2.3,0.9,2.3,2.4S72.4,65.3,71.2,65.3 M71.2,61
			c-1,0-1.8,0.8-1.8,1.9c0,1.1,0.7,1.9,1.8,1.9c1,0,1.8-0.8,1.8-1.9C73,61.8,72.2,61,71.2,61 M70.7,64.3h-0.4v-2.6h1
			c0.6,0,0.9,0.2,0.9,0.7c0,0.5-0.3,0.7-0.7,0.7l0.7,1.1h-0.5l-0.7-1.1h-0.4V64.3z M71.2,62.8c0.3,0,0.6,0,0.6-0.4
			c0-0.3-0.3-0.4-0.6-0.4h-0.5v0.8H71.2z"/>
	</g>
</g>
</svg>
